<?xml version="1.0" encoding="iso-8859-1"?>
<svg version="1.1" id="Capa_1" xmlns="http://www.w3.org/2000/svg" xmlns:xlink="http://www.w3.org/1999/xlink" x="0px" y="0px"
	 viewBox="0 0 512 512" style="enable-background:new 0 0 512 512;" xml:space="preserve">
	<circle style="fill:#455A64;" cx="95.997" cy="64" r="64"/>
	<path style="fill:#455A64;" d="M177.341,188.832C175.709,172.384,162.013,160,145.533,160h-17.536
		c-4.256,0-8.32,1.696-11.328,4.672l-20.672,20.704l-20.704-20.704c-2.976-2.976-7.04-4.672-11.296-4.672H46.461
		c-16.512,0-30.176,12.384-31.808,28.8L0.093,334.4c-0.48,4.512,0.992,8.96,4.032,12.352C7.133,350.08,11.453,352,15.997,352h17.536
		l13.12,131.2c1.632,16.384,15.296,28.8,31.808,28.8h35.072c16.512,0,30.176-12.416,31.808-28.8l13.12-131.2h17.536
		c4.544,0,8.832-1.92,11.872-5.248c3.04-3.36,4.512-7.84,4.032-12.352L177.341,188.832z"/>
<path style="fill:#64B5F6;" d="M255.997,8v496c136.96,0,248-111.04,248-248S392.957,8,255.997,8z"/>
<path style="fill:#2196F3;" d="M255.997,0c-6.08,0-11.808,0.352-17.888,1.056c-8.032,0.96-14.112,7.776-14.112,15.904v478.08
	c0,8.096,6.048,14.912,14.08,15.872c6.08,0.736,11.84,1.088,17.92,1.088c141.152,0,256-114.848,256-256S397.149,0,255.997,0z
	 M255.997,474.112V352c26.24,0,52,2.656,77.44,6.656C317.341,402.368,290.973,441.888,255.997,474.112z M255.997,320V192
	c29.504,0,58.4-3.04,86.944-7.808c5.76,23.264,9.056,47.296,9.056,71.808s-3.296,48.544-9.088,71.808
	C314.397,323.072,285.469,320,255.997,320z M255.997,37.888c34.976,32.224,61.344,71.744,77.44,115.456
	c-25.44,4-51.168,6.656-77.44,6.656V37.888z M374.429,178.208c27.296-6.304,53.984-14.944,80.032-25.664
	c16.224,31.008,25.536,66.144,25.536,103.456s-9.312,72.448-25.504,103.424c-26.08-10.72-52.736-19.328-80.064-25.632
	c6.144-25.216,9.568-51.264,9.568-77.792S380.573,203.424,374.429,178.208z M437.277,124.928
	c-23.392,9.312-47.264,17.024-71.712,22.56c-14.272-40.928-36.8-78.624-66.112-111.2C355.901,47.456,404.637,79.968,437.277,124.928
	z M299.453,475.68c29.312-32.576,51.84-70.272,66.112-111.2c24.448,5.536,48.32,13.248,71.712,22.56
	C404.637,432.032,355.901,464.544,299.453,475.68z"/>
</svg>
